<svg width="188" height="42" viewBox="0 0 188 42" fill="none" xmlns="http://www.w3.org/2000/svg">
<path d="M15.9586 2.88675C19.0526 1.10042 22.8646 1.10042 25.9586 2.88675L34.1092 7.59253C37.2032 9.37886 39.1092 12.6801 39.1092 16.2528V25.6643C39.1092 29.237 37.2032 32.5383 34.1092 34.3246L25.9586 39.0304C22.8646 40.8167 19.0526 40.8167 15.9586 39.0304L7.80792 34.3246C4.71391 32.5383 2.80791 29.237 2.80791 25.6643V16.2528C2.80791 12.6801 4.7139 9.37886 7.80791 7.59253L15.9586 2.88675Z" fill="url(#paint0_linear)"/>
<path d="M15.9586 2.88675C19.0526 1.10042 22.8646 1.10042 25.9586 2.88675L34.1092 7.59253C37.2032 9.37886 39.1092 12.6801 39.1092 16.2528V25.6643C39.1092 29.237 37.2032 32.5383 34.1092 34.3246L25.9586 39.0304C22.8646 40.8167 19.0526 40.8167 15.9586 39.0304L7.80792 34.3246C4.71391 32.5383 2.80791 29.237 2.80791 25.6643V16.2528C2.80791 12.6801 4.7139 9.37886 7.80791 7.59253L15.9586 2.88675Z" fill="url(#paint1_linear)"/>
<g filter="url(#filter0_i)">
<path d="M26.4625 20.0064L24.5926 19.591L26.0469 21.6679V28.1063L31.0333 23.9525V16.8911L28.7479 17.7218L26.4625 20.0064Z" fill="#3C7BD2"/>
<path d="M14.8277 20.0064L16.6976 19.591L15.2433 21.6679V28.1063L10.257 23.9525V16.8911L12.5423 17.7218L14.8277 20.0064Z" fill="#3C7BD2"/>
<path fill-rule="evenodd" clip-rule="evenodd" d="M15.8665 22.0834L17.5286 19.5911L18.5675 20.2141H22.7227L23.7615 19.5911L25.4236 22.0834V31.4294L24.1771 33.2986L22.7227 34.7524H18.5675L17.1131 33.2986L15.8665 31.4294V22.0834Z" fill="#3C7BD2"/>
<path d="M26.0469 32.0525L28.7478 29.3525V26.6526L26.0469 28.9371V32.0525Z" fill="#3C7BD2"/>
<path d="M15.2433 32.0525L12.5423 29.3525V26.6526L15.2433 28.9371V32.0525Z" fill="#3C7BD2"/>
<path fill-rule="evenodd" clip-rule="evenodd" d="M20.2296 7.54514H17.9442L16.2821 11.4912L18.983 19.3835H22.515L25.0082 11.4912L23.346 7.54514H21.0607V19.3835H20.2296V7.54514Z" fill="#3C7BD2"/>
<path d="M18.983 19.3834L10.0492 16.0604L8.8026 10.8681L16.4898 11.4912L19.1908 19.3834H18.983Z" fill="#3C7BD2"/>
<path d="M22.515 19.3834L31.4488 16.0604L32.6954 10.8681L24.8004 11.4912L22.3072 19.3834H22.515Z" fill="#3C7BD2"/>
<path d="M25.4237 10.8682L29.7867 10.4528L26.8781 7.54514H23.9694L25.4237 10.8682Z" fill="#3C7BD2"/>
<path d="M15.8666 10.8682L11.5036 10.4528L14.4123 7.54514H17.3209L15.8666 10.8682Z" fill="#3C7BD2"/>
</g>
<path d="M48.4143 32.2259C48.4143 32.5194 48.5904 32.6954 48.8838 32.6954H51.9353C52.2581 32.6954 52.4048 32.5194 52.4048 32.2259V24.8318H55.9259C58.684 24.8318 60.1511 23.3353 60.1511 20.6065V13.4471C60.1511 10.6889 58.684 9.2218 55.9259 9.2218H48.8838C48.5904 9.2218 48.4143 9.39785 48.4143 9.69127V32.2259ZM52.4048 20.9586V13.0949H54.9869C55.7791 13.0949 56.1606 13.5057 56.1606 14.2686V19.7849C56.1606 20.5185 55.7791 20.9586 54.9869 20.9586H52.4048Z" fill="#3C7BD2"/>
<path d="M74.8583 13.4471C74.8583 10.6889 73.3912 9.2218 70.6331 9.2218H63.2682C62.9748 9.2218 62.7988 9.39785 62.7988 9.69127V32.2259C62.7988 32.5194 62.9748 32.6954 63.2682 32.6954H66.3198C66.6132 32.6954 66.7893 32.5194 66.7893 32.2259V24.8318H68.8139L70.7798 32.2846C70.8385 32.5487 70.9852 32.6954 71.2786 32.6954H74.3302C74.6529 32.6954 74.829 32.5194 74.741 32.1673L72.7164 24.4796C74.1248 23.8635 74.8583 22.5724 74.8583 20.6065V13.4471ZM66.7893 20.9586V13.0949H69.6941C70.457 13.0949 70.8678 13.5057 70.8678 14.2686V19.7849C70.8678 20.5478 70.457 20.9586 69.6941 20.9586H66.7893Z" fill="#3C7BD2"/>
<path d="M78.2544 9.2218C77.9317 9.2218 77.785 9.39785 77.785 9.69127V32.2259C77.785 32.5194 77.9317 32.6954 78.2544 32.6954H81.306C81.5994 32.6954 81.7755 32.5194 81.7755 32.2259V9.69127C81.7755 9.39785 81.5994 9.2218 81.306 9.2218H78.2544Z" fill="#3C7BD2"/>
<path d="M96.9843 9.2218C96.6321 9.2218 96.4268 9.39785 96.3387 9.74996L93.0818 24.3623L89.8248 9.74996C89.7368 9.39785 89.5314 9.2218 89.1793 9.2218H85.3061C84.9247 9.2218 84.7193 9.42719 84.7193 9.80864V32.1086C84.7193 32.49 84.9247 32.6954 85.3061 32.6954H88.0056C88.387 32.6954 88.5924 32.49 88.5924 32.1086V18.9047H88.7978L91.7027 32.1673C91.7907 32.5194 91.9961 32.6954 92.3482 32.6954H93.786C94.1381 32.6954 94.3435 32.5194 94.4315 32.1673L97.3364 18.9047H97.5418V32.1086C97.5418 32.49 97.7471 32.6954 98.1286 32.6954H100.857C101.239 32.6954 101.444 32.49 101.444 32.1086V9.80864C101.444 9.42719 101.239 9.2218 100.857 9.2218H96.9843Z" fill="#3C7BD2"/>
<path d="M116.084 9.69127C116.084 9.39785 115.966 9.2218 115.614 9.2218H104.816C104.552 9.2218 104.376 9.39785 104.376 9.69127V32.2259C104.376 32.5194 104.552 32.6954 104.816 32.6954H115.614C115.966 32.6954 116.084 32.5194 116.084 32.2259V29.2917C116.084 28.969 115.966 28.8223 115.614 28.8223H108.279V22.8952H113.883C114.176 22.8952 114.352 22.7191 114.352 22.3964V19.4915C114.352 19.1687 114.176 18.9927 113.883 18.9927H108.279V13.1243H115.614C115.966 13.1243 116.084 12.9189 116.084 12.6255V9.69127Z" fill="#3C7BD2"/>
<path d="M123.479 9.2218C120.751 9.2218 119.254 10.6889 119.254 13.4471V20.3718C119.254 20.9293 119.518 21.2814 120.046 21.4574L127.001 23.7461V27.6486C127.001 28.4408 126.59 28.8223 125.827 28.8223H124.418C123.685 28.8223 123.245 28.4408 123.245 27.6486V25.3893C123.245 25.0665 123.098 24.9198 122.775 24.9198H119.724C119.43 24.9198 119.254 25.0665 119.254 25.3893V28.4702C119.254 31.2283 120.751 32.6954 123.479 32.6954H126.766C129.524 32.6954 130.991 31.2283 130.991 28.4702V21.6922C130.991 21.1347 130.727 20.8119 130.228 20.6065L123.245 18.3178V14.2686C123.245 13.5057 123.685 13.0949 124.418 13.0949H125.827C126.619 13.0949 127.001 13.5057 127.001 14.2686V16.5573C127.001 16.8507 127.177 17.0268 127.47 17.0268H130.522C130.844 17.0268 130.991 16.8507 130.991 16.5573V13.4471C130.991 10.6889 129.524 9.2218 126.766 9.2218H123.479Z" fill="#303132"/>
<path d="M133.235 9.2218C132.941 9.2218 132.765 9.39785 132.765 9.69127V12.6255C132.765 12.9189 132.941 13.0949 133.235 13.0949H136.638V32.2259C136.638 32.5487 136.815 32.6954 137.108 32.6954H140.16C140.482 32.6954 140.629 32.5487 140.629 32.2259V13.0949H144.033C144.355 13.0949 144.502 12.9189 144.502 12.6255V9.69127C144.502 9.39785 144.355 9.2218 144.033 9.2218H133.235Z" fill="#303132"/>
<path d="M146.275 28.4702C146.275 31.2283 147.742 32.6954 150.5 32.6954H153.787C156.545 32.6954 158.012 31.2283 158.012 28.4702V13.4471C158.012 10.6889 156.545 9.2218 153.787 9.2218H150.5C147.742 9.2218 146.275 10.6889 146.275 13.4471V28.4702ZM151.351 28.9103C150.589 28.9103 150.178 28.5288 150.178 27.7366V14.1806C150.178 13.4177 150.589 13.0069 151.351 13.0069H153.053C153.816 13.0069 154.227 13.4177 154.227 14.1806V27.7366C154.227 28.5288 153.816 28.9103 153.053 28.9103H151.351Z" fill="#303132"/>
<path d="M173.006 13.4471C173.006 10.6889 171.539 9.2218 168.781 9.2218H161.416C161.122 9.2218 160.946 9.39785 160.946 9.69127V32.2259C160.946 32.5194 161.122 32.6954 161.416 32.6954H164.467C164.761 32.6954 164.937 32.5194 164.937 32.2259V24.8318H166.961L168.927 32.2846C168.986 32.5487 169.133 32.6954 169.426 32.6954H172.478C172.8 32.6954 172.976 32.5194 172.888 32.1673L170.864 24.4796C172.272 23.8635 173.006 22.5724 173.006 20.6065V13.4471ZM164.937 20.9586V13.0949H167.842C168.605 13.0949 169.015 13.5057 169.015 14.2686V19.7849C169.015 20.5478 168.605 20.9586 167.842 20.9586H164.937Z" fill="#303132"/>
<path d="M187.64 9.69127C187.64 9.39785 187.523 9.2218 187.17 9.2218H176.373C176.108 9.2218 175.932 9.39785 175.932 9.69127V32.2259C175.932 32.5194 176.108 32.6954 176.373 32.6954H187.17C187.523 32.6954 187.64 32.5194 187.64 32.2259V29.2917C187.64 28.969 187.523 28.8223 187.17 28.8223H179.835V22.8952H185.439C185.733 22.8952 185.909 22.7191 185.909 22.3964V19.4915C185.909 19.1687 185.733 18.9927 185.439 18.9927H179.835V13.1243H187.17C187.523 13.1243 187.64 12.9189 187.64 12.6255V9.69127Z" fill="#303132"/>
<defs>
<filter id="filter0_i" x="8.8026" y="7.54514" width="23.8928" height="31.2073" filterUnits="userSpaceOnUse" color-interpolation-filters="sRGB">
<feFlood flood-opacity="0" result="BackgroundImageFix"/>
<feBlend mode="normal" in="SourceGraphic" in2="BackgroundImageFix" result="shape"/>
<feColorMatrix in="SourceAlpha" type="matrix" values="0 0 0 0 0 0 0 0 0 0 0 0 0 0 0 0 0 0 127 0" result="hardAlpha"/>
<feOffset dy="4"/>
<feGaussianBlur stdDeviation="3"/>
<feComposite in2="hardAlpha" operator="arithmetic" k2="-1" k3="1"/>
<feColorMatrix type="matrix" values="0 0 0 0 0.0431373 0 0 0 0 0.14902 0 0 0 0 0.4 0 0 0 0.3 0"/>
<feBlend mode="normal" in2="shape" result="effect1_innerShadow"/>
</filter>
<linearGradient id="paint0_linear" x1="4.5" y1="9" x2="83" y2="40" gradientUnits="userSpaceOnUse">
<stop stop-color="#3C7BD2"/>
<stop offset="1" stop-color="white" stop-opacity="0"/>
</linearGradient>
<linearGradient id="paint1_linear" x1="39.1925" y1="-4.61088" x2="10.4793" y2="52.1868" gradientUnits="userSpaceOnUse">
<stop offset="0.278641" stop-color="white"/>
<stop offset="1" stop-color="white" stop-opacity="0"/>
</linearGradient>
</defs>
</svg>
